<svg width="325" height="92" viewBox="0 0 325 92" fill="none" xmlns="http://www.w3.org/2000/svg">
<rect width="325" height="92" rx="20" fill="#003339"/>
<rect x="14" y="6" width="66" height="80" rx="16" fill="url(#paint0_linear_0_28)"/>
<path d="M33.7512 18.1826H34.6907V24.5557L35.7952 24.6699C35.829 24.6699 35.8629 24.6742 35.8967 24.6826C36.0745 24.7165 36.1633 24.8223 36.1633 25H31.5549V24.6699L33.2053 24.5557V19.0967L31.3264 20.252L31.0979 19.8965L33.7512 18.1826ZM37.484 23.8574H40.3912C40.569 23.8574 40.7086 23.849 40.8102 23.832C41.0387 23.7812 41.208 23.6035 41.318 23.2988L41.5338 22.6895H41.8131L41.8004 25H36.735V24.6699C36.735 24.3314 36.7985 24.0225 36.9254 23.7432C37.1031 23.3538 37.4882 22.973 38.0807 22.6006C38.6985 22.2113 39.0582 21.9785 39.1598 21.9023C39.8284 21.3861 40.1627 20.6921 40.1627 19.8203C40.1627 19.651 40.1458 19.486 40.1119 19.3252C39.9765 18.7074 39.6168 18.3984 39.0328 18.3984C38.7959 18.3984 38.6139 18.4577 38.4869 18.5762C38.3431 18.7031 38.2542 18.9909 38.2203 19.4395C38.2119 19.6426 38.1992 19.7907 38.1823 19.8838C38.0976 20.2731 37.8522 20.4678 37.4459 20.4678C37.3698 20.4678 37.2936 20.4551 37.2174 20.4297C36.9127 20.3281 36.7604 20.07 36.7604 19.6553C36.7604 19.2913 36.8916 18.9782 37.1539 18.7158C37.594 18.2757 38.2542 18.0557 39.1344 18.0557C39.566 18.0557 39.9638 18.1149 40.3278 18.2334C41.2249 18.5212 41.6735 19.0798 41.6735 19.9092C41.6735 20.4001 41.4619 20.8571 41.0387 21.2803C40.7002 21.6104 40.0612 22.0166 39.1217 22.499C38.8001 22.6598 38.5673 22.7783 38.4235 22.8545C37.7972 23.21 37.484 23.5443 37.484 23.8574ZM44.6064 20.7725C44.6064 20.8994 44.5768 21.0221 44.5176 21.1406C44.3652 21.4284 44.124 21.5723 43.7939 21.5723C43.6755 21.5723 43.557 21.5469 43.4385 21.4961C43.1423 21.3522 42.9941 21.111 42.9941 20.7725C42.9941 20.6455 43.0238 20.5228 43.083 20.4043C43.2269 20.1081 43.4639 19.96 43.7939 19.96C43.9209 19.96 44.0436 19.9896 44.1621 20.0488C44.4583 20.2012 44.6064 20.4424 44.6064 20.7725ZM44.6064 23.6924C44.6064 23.8193 44.5768 23.9421 44.5176 24.0605C44.3652 24.3483 44.124 24.4922 43.7939 24.4922C43.6755 24.4922 43.557 24.4668 43.4385 24.416C43.1423 24.2721 42.9941 24.0309 42.9941 23.6924C42.9941 23.557 43.028 23.4258 43.0957 23.2988C43.248 22.9941 43.4808 22.8418 43.7939 22.8418C43.9209 22.8418 44.0479 22.8799 44.1748 22.9561C44.4626 23.1169 44.6064 23.3623 44.6064 23.6924ZM48.6566 18.0557C49.2745 18.0557 49.8161 18.2038 50.2816 18.5C51.1788 19.0924 51.6273 20.1292 51.6273 21.6104C51.6273 22.499 51.4242 23.2523 51.0179 23.8701C50.4678 24.708 49.6595 25.127 48.5931 25.127C47.9076 25.127 47.3151 24.9408 46.8158 24.5684C45.9864 23.9336 45.5717 22.9307 45.5717 21.5596C45.5717 20.6709 45.779 19.9176 46.1937 19.2998C46.7608 18.4704 47.5817 18.0557 48.6566 18.0557ZM48.6312 24.7842C48.8682 24.7842 49.0756 24.7249 49.2533 24.6064C49.7696 24.251 50.0277 23.2311 50.0277 21.5469C50.0277 20.7513 49.9685 20.1123 49.85 19.6299C49.6553 18.8089 49.2448 18.3984 48.6185 18.3984C48.4239 18.3984 48.2504 18.4365 48.098 18.5127C47.4802 18.8174 47.1713 19.8499 47.1713 21.6104C47.1713 22.4821 47.239 23.1634 47.3744 23.6543C47.5775 24.4076 47.9965 24.7842 48.6312 24.7842ZM55.6902 18.0557C56.308 18.0557 56.8497 18.2038 57.3152 18.5C58.2123 19.0924 58.6609 20.1292 58.6609 21.6104C58.6609 22.499 58.4578 23.2523 58.0515 23.8701C57.5014 24.708 56.6931 25.127 55.6267 25.127C54.9412 25.127 54.3487 24.9408 53.8494 24.5684C53.0199 23.9336 52.6052 22.9307 52.6052 21.5596C52.6052 20.6709 52.8126 19.9176 53.2273 19.2998C53.7944 18.4704 54.6153 18.0557 55.6902 18.0557ZM55.6648 24.7842C55.9018 24.7842 56.1091 24.7249 56.2869 24.6064C56.8031 24.251 57.0613 23.2311 57.0613 21.5469C57.0613 20.7513 57.002 20.1123 56.8835 19.6299C56.6889 18.8089 56.2784 18.3984 55.6521 18.3984C55.4574 18.3984 55.2839 18.4365 55.1316 18.5127C54.5138 18.8174 54.2048 19.8499 54.2048 21.6104C54.2048 22.4821 54.2725 23.1634 54.408 23.6543C54.6111 24.4076 55.03 24.7842 55.6648 24.7842Z" fill="white"/>
<path d="M40.2503 73.8574H43.1575C43.3353 73.8574 43.4749 73.849 43.5765 73.832C43.805 73.7812 43.9743 73.6035 44.0843 73.2988L44.3001 72.6895H44.5794L44.5667 75H39.5013V74.6699C39.5013 74.3314 39.5648 74.0225 39.6917 73.7432C39.8694 73.3538 40.2545 72.973 40.847 72.6006C41.4648 72.2113 41.8245 71.9785 41.9261 71.9023C42.5947 71.3861 42.929 70.6921 42.929 69.8203C42.929 69.651 42.9121 69.486 42.8782 69.3252C42.7428 68.7074 42.3831 68.3984 41.7991 68.3984C41.5622 68.3984 41.3802 68.4577 41.2532 68.5762C41.1094 68.7031 41.0205 68.9909 40.9866 69.4395C40.9782 69.6426 40.9655 69.7907 40.9485 69.8838C40.8639 70.2731 40.6185 70.4678 40.2122 70.4678C40.136 70.4678 40.0599 70.4551 39.9837 70.4297C39.679 70.3281 39.5267 70.07 39.5267 69.6553C39.5267 69.2913 39.6579 68.9782 39.9202 68.7158C40.3603 68.2757 41.0205 68.0557 41.9007 68.0557C42.3323 68.0557 42.7301 68.1149 43.0941 68.2334C43.9912 68.5212 44.4398 69.0798 44.4398 69.9092C44.4398 70.4001 44.2282 70.8571 43.805 71.2803C43.4665 71.6104 42.8275 72.0166 41.888 72.499C41.5664 72.6598 41.3336 72.7783 41.1898 72.8545C40.5635 73.21 40.2503 73.5443 40.2503 73.8574ZM51.3464 75.8506H47.3854V75.5078H48.8073V73.8955L45.4431 73.8828L45.3669 73.502C45.6208 73.2988 45.862 73.0915 46.0905 72.8799C47.1146 71.9066 47.8382 70.8063 48.2614 69.5791C48.4899 68.9189 48.6127 68.5635 48.6296 68.5127C48.7988 68.1826 49.0655 68.0176 49.4294 68.0176C49.514 68.0176 49.5902 68.026 49.6579 68.043C50.0641 68.1191 50.2673 68.3604 50.2673 68.7666C50.2588 69.2744 49.8018 69.9896 48.8962 70.9121C48.4222 71.3861 47.4362 72.2493 45.9382 73.502L48.8073 73.5146V72.0039H48.9343C49.0697 72.0039 49.1839 71.9954 49.277 71.9785C49.5225 71.9277 49.6918 71.7458 49.7849 71.4326L49.9499 70.8994H50.2292V73.5273H51.3464V73.9082H50.2292V75.5078H51.0417C51.0925 75.5078 51.139 75.512 51.1813 75.5205C51.2914 75.5374 51.3464 75.6475 51.3464 75.8506Z" fill="white"/>
<path d="M44.276 51.184C44.276 51.4347 44.2917 51.6852 44.323 51.934C44.2917 51.6852 44.276 51.4347 44.276 51.184C44.278 50.8073 44.3158 50.4316 44.389 50.062" stroke="white" stroke-width="2" stroke-linecap="round" stroke-linejoin="round"/>
<path fill-rule="evenodd" clip-rule="evenodd" d="M50.276 57.184C53.4447 57.1878 56.07 54.727 56.2711 51.5647C56.4721 48.4025 54.1796 45.629 51.036 45.2314C47.8924 44.8339 44.9816 46.9493 44.389 50.062C43.0002 49.3962 41.3454 49.6486 40.2182 50.6981C39.091 51.7476 38.7212 53.3802 39.2862 54.8129C39.8513 56.2457 41.2359 57.1864 42.776 57.184H50.276Z" stroke="white" stroke-width="2" stroke-linecap="round" stroke-linejoin="round"/>
<path d="M39.026 43.684C39.026 43.9347 39.0417 44.1852 39.073 44.434C39.0417 44.1852 39.026 43.9347 39.026 43.684C39.028 43.3073 39.0658 42.9316 39.139 42.562" stroke="white" stroke-width="2" stroke-linecap="round" stroke-linejoin="round"/>
<path d="M50.835 42.176C50.1283 39.461 47.6346 37.5982 44.8306 37.6907C42.0267 37.7832 39.6612 39.8064 39.135 42.562C37.7462 41.8962 36.0914 42.1486 34.9641 43.1981C33.8369 44.2476 33.4672 45.8802 34.0322 47.3129C34.5972 48.7457 35.9818 49.6864 37.522 49.684" stroke="white" stroke-width="2" stroke-linecap="round" stroke-linejoin="round"/>
<path d="M92.7512 18.1826H93.6907V24.5557L94.7952 24.6699C94.829 24.6699 94.8629 24.6742 94.8967 24.6826C95.0745 24.7165 95.1633 24.8223 95.1633 25H90.5549V24.6699L92.2053 24.5557V19.0967L90.3264 20.252L90.0979 19.8965L92.7512 18.1826ZM96.484 23.8574H99.3912C99.569 23.8574 99.7086 23.849 99.8102 23.832C100.039 23.7812 100.208 23.6035 100.318 23.2988L100.534 22.6895H100.813L100.8 25H95.735V24.6699C95.735 24.3314 95.7985 24.0225 95.9254 23.7432C96.1031 23.3538 96.4882 22.973 97.0807 22.6006C97.6985 22.2113 98.0582 21.9785 98.1598 21.9023C98.8284 21.3861 99.1627 20.6921 99.1627 19.8203C99.1627 19.651 99.1458 19.486 99.1119 19.3252C98.9765 18.7074 98.6168 18.3984 98.0328 18.3984C97.7959 18.3984 97.6139 18.4577 97.4869 18.5762C97.3431 18.7031 97.2542 18.9909 97.2203 19.4395C97.2119 19.6426 97.1992 19.7907 97.1823 19.8838C97.0976 20.2731 96.8522 20.4678 96.4459 20.4678C96.3698 20.4678 96.2936 20.4551 96.2174 20.4297C95.9127 20.3281 95.7604 20.07 95.7604 19.6553C95.7604 19.2913 95.8916 18.9782 96.1539 18.7158C96.594 18.2757 97.2542 18.0557 98.1344 18.0557C98.566 18.0557 98.9638 18.1149 99.3278 18.2334C100.225 18.5212 100.673 19.0798 100.673 19.9092C100.673 20.4001 100.462 20.8571 100.039 21.2803C99.7002 21.6104 99.0612 22.0166 98.1217 22.499C97.8001 22.6598 97.5673 22.7783 97.4235 22.8545C96.7972 23.21 96.484 23.5443 96.484 23.8574ZM103.606 20.7725C103.606 20.8994 103.577 21.0221 103.518 21.1406C103.365 21.4284 103.124 21.5723 102.794 21.5723C102.675 21.5723 102.557 21.5469 102.438 21.4961C102.142 21.3522 101.994 21.111 101.994 20.7725C101.994 20.6455 102.024 20.5228 102.083 20.4043C102.227 20.1081 102.464 19.96 102.794 19.96C102.921 19.96 103.044 19.9896 103.162 20.0488C103.458 20.2012 103.606 20.4424 103.606 20.7725ZM103.606 23.6924C103.606 23.8193 103.577 23.9421 103.518 24.0605C103.365 24.3483 103.124 24.4922 102.794 24.4922C102.675 24.4922 102.557 24.4668 102.438 24.416C102.142 24.2721 101.994 24.0309 101.994 23.6924C101.994 23.557 102.028 23.4258 102.096 23.2988C102.248 22.9941 102.481 22.8418 102.794 22.8418C102.921 22.8418 103.048 22.8799 103.175 22.9561C103.463 23.1169 103.606 23.3623 103.606 23.6924ZM107.657 18.0557C108.274 18.0557 108.816 18.2038 109.282 18.5C110.179 19.0924 110.627 20.1292 110.627 21.6104C110.627 22.499 110.424 23.2523 110.018 23.8701C109.468 24.708 108.66 25.127 107.593 25.127C106.908 25.127 106.315 24.9408 105.816 24.5684C104.986 23.9336 104.572 22.9307 104.572 21.5596C104.572 20.6709 104.779 19.9176 105.194 19.2998C105.761 18.4704 106.582 18.0557 107.657 18.0557ZM107.631 24.7842C107.868 24.7842 108.076 24.7249 108.253 24.6064C108.77 24.251 109.028 23.2311 109.028 21.5469C109.028 20.7513 108.968 20.1123 108.85 19.6299C108.655 18.8089 108.245 18.3984 107.619 18.3984C107.424 18.3984 107.25 18.4365 107.098 18.5127C106.48 18.8174 106.171 19.8499 106.171 21.6104C106.171 22.4821 106.239 23.1634 106.374 23.6543C106.578 24.4076 106.996 24.7842 107.631 24.7842ZM114.69 18.0557C115.308 18.0557 115.85 18.2038 116.315 18.5C117.212 19.0924 117.661 20.1292 117.661 21.6104C117.661 22.499 117.458 23.2523 117.052 23.8701C116.501 24.708 115.693 25.127 114.627 25.127C113.941 25.127 113.349 24.9408 112.849 24.5684C112.02 23.9336 111.605 22.9307 111.605 21.5596C111.605 20.6709 111.813 19.9176 112.227 19.2998C112.794 18.4704 113.615 18.0557 114.69 18.0557ZM114.665 24.7842C114.902 24.7842 115.109 24.7249 115.287 24.6064C115.803 24.251 116.061 23.2311 116.061 21.5469C116.061 20.7513 116.002 20.1123 115.884 19.6299C115.689 18.8089 115.278 18.3984 114.652 18.3984C114.457 18.3984 114.284 18.4365 114.132 18.5127C113.514 18.8174 113.205 19.8499 113.205 21.6104C113.205 22.4821 113.273 23.1634 113.408 23.6543C113.611 24.4076 114.03 24.7842 114.665 24.7842Z" fill="white"/>
<path d="M99.2503 73.8574H102.158C102.335 73.8574 102.475 73.849 102.576 73.832C102.805 73.7812 102.974 73.6035 103.084 73.2988L103.3 72.6895H103.579L103.567 75H98.5013V74.6699C98.5013 74.3314 98.5648 74.0225 98.6917 73.7432C98.8694 73.3538 99.2545 72.973 99.847 72.6006C100.465 72.2113 100.825 71.9785 100.926 71.9023C101.595 71.3861 101.929 70.6921 101.929 69.8203C101.929 69.651 101.912 69.486 101.878 69.3252C101.743 68.7074 101.383 68.3984 100.799 68.3984C100.562 68.3984 100.38 68.4577 100.253 68.5762C100.109 68.7031 100.02 68.9909 99.9866 69.4395C99.9782 69.6426 99.9655 69.7907 99.9485 69.8838C99.8639 70.2731 99.6185 70.4678 99.2122 70.4678C99.136 70.4678 99.0599 70.4551 98.9837 70.4297C98.679 70.3281 98.5267 70.07 98.5267 69.6553C98.5267 69.2913 98.6579 68.9782 98.9202 68.7158C99.3603 68.2757 100.02 68.0557 100.901 68.0557C101.332 68.0557 101.73 68.1149 102.094 68.2334C102.991 68.5212 103.44 69.0798 103.44 69.9092C103.44 70.4001 103.228 70.8571 102.805 71.2803C102.466 71.6104 101.827 72.0166 100.888 72.499C100.566 72.6598 100.334 72.7783 100.19 72.8545C99.5635 73.21 99.2503 73.5443 99.2503 73.8574ZM110.346 75.8506H106.385V75.5078H107.807V73.8955L104.443 73.8828L104.367 73.502C104.621 73.2988 104.862 73.0915 105.091 72.8799C106.115 71.9066 106.838 70.8063 107.261 69.5791C107.49 68.9189 107.613 68.5635 107.63 68.5127C107.799 68.1826 108.065 68.0176 108.429 68.0176C108.514 68.0176 108.59 68.026 108.658 68.043C109.064 68.1191 109.267 68.3604 109.267 68.7666C109.259 69.2744 108.802 69.9896 107.896 70.9121C107.422 71.3861 106.436 72.2493 104.938 73.502L107.807 73.5146V72.0039H107.934C108.07 72.0039 108.184 71.9954 108.277 71.9785C108.522 71.9277 108.692 71.7458 108.785 71.4326L108.95 70.8994H109.229V73.5273H110.346V73.9082H109.229V75.5078H110.042C110.092 75.5078 110.139 75.512 110.181 75.5205C110.291 75.5374 110.346 75.6475 110.346 75.8506Z" fill="white"/>
<path d="M103.879 50.3182L100.729 53.4682H105.454L101.517 57.4057" stroke="white" stroke-width="2" stroke-linecap="round" stroke-linejoin="round"/>
<circle cx="94.4295" cy="57.4057" r="0.39375" stroke="white" stroke-width="2.3" stroke-linecap="round" stroke-linejoin="round"/>
<circle cx="107.029" cy="57.4057" r="0.39375" stroke="white" stroke-width="2" stroke-linecap="round" stroke-linejoin="round"/>
<path d="M100.729 44.0182C100.729 44.2815 100.746 44.5445 100.779 44.8057C100.746 44.5445 100.729 44.2815 100.729 44.0182C100.731 43.6226 100.771 43.228 100.848 42.8401" stroke="white" stroke-width="2" stroke-linecap="round" stroke-linejoin="round"/>
<path fill-rule="evenodd" clip-rule="evenodd" d="M107.029 50.3182C110.356 50.3222 113.113 47.7384 113.324 44.418C113.535 41.0976 111.128 38.1855 107.827 37.768C104.527 37.3505 101.47 39.5717 100.848 42.8401C99.3898 42.141 97.6523 42.406 96.4687 43.508C95.2851 44.61 94.8969 46.3242 95.4902 47.8286C96.0834 49.333 97.5373 50.3208 99.1544 50.3182H107.029Z" stroke="white" stroke-width="2" stroke-linecap="round" stroke-linejoin="round"/>
<path d="M98.367 53.4682L94.7077 57.1275" stroke="white" stroke-width="2" stroke-linecap="round" stroke-linejoin="round"/>
<path d="M110.967 53.4682L107.308 57.1275" stroke="white" stroke-width="2" stroke-linecap="round" stroke-linejoin="round"/>
<path d="M151.751 18.1826H152.691V24.5557L153.795 24.6699C153.829 24.6699 153.863 24.6742 153.897 24.6826C154.074 24.7165 154.163 24.8223 154.163 25H149.555V24.6699L151.205 24.5557V19.0967L149.326 20.252L149.098 19.8965L151.751 18.1826ZM155.484 23.8574H158.391C158.569 23.8574 158.709 23.849 158.81 23.832C159.039 23.7812 159.208 23.6035 159.318 23.2988L159.534 22.6895H159.813L159.8 25H154.735V24.6699C154.735 24.3314 154.798 24.0225 154.925 23.7432C155.103 23.3538 155.488 22.973 156.081 22.6006C156.699 22.2113 157.058 21.9785 157.16 21.9023C157.828 21.3861 158.163 20.6921 158.163 19.8203C158.163 19.651 158.146 19.486 158.112 19.3252C157.977 18.7074 157.617 18.3984 157.033 18.3984C156.796 18.3984 156.614 18.4577 156.487 18.5762C156.343 18.7031 156.254 18.9909 156.22 19.4395C156.212 19.6426 156.199 19.7907 156.182 19.8838C156.098 20.2731 155.852 20.4678 155.446 20.4678C155.37 20.4678 155.294 20.4551 155.217 20.4297C154.913 20.3281 154.76 20.07 154.76 19.6553C154.76 19.2913 154.892 18.9782 155.154 18.7158C155.594 18.2757 156.254 18.0557 157.134 18.0557C157.566 18.0557 157.964 18.1149 158.328 18.2334C159.225 18.5212 159.673 19.0798 159.673 19.9092C159.673 20.4001 159.462 20.8571 159.039 21.2803C158.7 21.6104 158.061 22.0166 157.122 22.499C156.8 22.6598 156.567 22.7783 156.423 22.8545C155.797 23.21 155.484 23.5443 155.484 23.8574ZM162.606 20.7725C162.606 20.8994 162.577 21.0221 162.518 21.1406C162.365 21.4284 162.124 21.5723 161.794 21.5723C161.675 21.5723 161.557 21.5469 161.438 21.4961C161.142 21.3522 160.994 21.111 160.994 20.7725C160.994 20.6455 161.024 20.5228 161.083 20.4043C161.227 20.1081 161.464 19.96 161.794 19.96C161.921 19.96 162.044 19.9896 162.162 20.0488C162.458 20.2012 162.606 20.4424 162.606 20.7725ZM162.606 23.6924C162.606 23.8193 162.577 23.9421 162.518 24.0605C162.365 24.3483 162.124 24.4922 161.794 24.4922C161.675 24.4922 161.557 24.4668 161.438 24.416C161.142 24.2721 160.994 24.0309 160.994 23.6924C160.994 23.557 161.028 23.4258 161.096 23.2988C161.248 22.9941 161.481 22.8418 161.794 22.8418C161.921 22.8418 162.048 22.8799 162.175 22.9561C162.463 23.1169 162.606 23.3623 162.606 23.6924ZM166.657 18.0557C167.274 18.0557 167.816 18.2038 168.282 18.5C169.179 19.0924 169.627 20.1292 169.627 21.6104C169.627 22.499 169.424 23.2523 169.018 23.8701C168.468 24.708 167.66 25.127 166.593 25.127C165.908 25.127 165.315 24.9408 164.816 24.5684C163.986 23.9336 163.572 22.9307 163.572 21.5596C163.572 20.6709 163.779 19.9176 164.194 19.2998C164.761 18.4704 165.582 18.0557 166.657 18.0557ZM166.631 24.7842C166.868 24.7842 167.076 24.7249 167.253 24.6064C167.77 24.251 168.028 23.2311 168.028 21.5469C168.028 20.7513 167.968 20.1123 167.85 19.6299C167.655 18.8089 167.245 18.3984 166.619 18.3984C166.424 18.3984 166.25 18.4365 166.098 18.5127C165.48 18.8174 165.171 19.8499 165.171 21.6104C165.171 22.4821 165.239 23.1634 165.374 23.6543C165.578 24.4076 165.996 24.7842 166.631 24.7842ZM173.69 18.0557C174.308 18.0557 174.85 18.2038 175.315 18.5C176.212 19.0924 176.661 20.1292 176.661 21.6104C176.661 22.499 176.458 23.2523 176.052 23.8701C175.501 24.708 174.693 25.127 173.627 25.127C172.941 25.127 172.349 24.9408 171.849 24.5684C171.02 23.9336 170.605 22.9307 170.605 21.5596C170.605 20.6709 170.813 19.9176 171.227 19.2998C171.794 18.4704 172.615 18.0557 173.69 18.0557ZM173.665 24.7842C173.902 24.7842 174.109 24.7249 174.287 24.6064C174.803 24.251 175.061 23.2311 175.061 21.5469C175.061 20.7513 175.002 20.1123 174.884 19.6299C174.689 18.8089 174.278 18.3984 173.652 18.3984C173.457 18.3984 173.284 18.4365 173.132 18.5127C172.514 18.8174 172.205 19.8499 172.205 21.6104C172.205 22.4821 172.273 23.1634 172.408 23.6543C172.611 24.4076 173.03 24.7842 173.665 24.7842Z" fill="white"/>
<path d="M158.25 73.8574H161.158C161.335 73.8574 161.475 73.849 161.576 73.832C161.805 73.7812 161.974 73.6035 162.084 73.2988L162.3 72.6895H162.579L162.567 75H157.501V74.6699C157.501 74.3314 157.565 74.0225 157.692 73.7432C157.869 73.3538 158.255 72.973 158.847 72.6006C159.465 72.2113 159.825 71.9785 159.926 71.9023C160.595 71.3861 160.929 70.6921 160.929 69.8203C160.929 69.651 160.912 69.486 160.878 69.3252C160.743 68.7074 160.383 68.3984 159.799 68.3984C159.562 68.3984 159.38 68.4577 159.253 68.5762C159.109 68.7031 159.02 68.9909 158.987 69.4395C158.978 69.6426 158.965 69.7907 158.949 69.8838C158.864 70.2731 158.618 70.4678 158.212 70.4678C158.136 70.4678 158.06 70.4551 157.984 70.4297C157.679 70.3281 157.527 70.07 157.527 69.6553C157.527 69.2913 157.658 68.9782 157.92 68.7158C158.36 68.2757 159.02 68.0557 159.901 68.0557C160.332 68.0557 160.73 68.1149 161.094 68.2334C161.991 68.5212 162.44 69.0798 162.44 69.9092C162.44 70.4001 162.228 70.8571 161.805 71.2803C161.466 71.6104 160.827 72.0166 159.888 72.499C159.566 72.6598 159.334 72.7783 159.19 72.8545C158.563 73.21 158.25 73.5443 158.25 73.8574ZM169.346 75.8506H165.385V75.5078H166.807V73.8955L163.443 73.8828L163.367 73.502C163.621 73.2988 163.862 73.0915 164.091 72.8799C165.115 71.9066 165.838 70.8063 166.261 69.5791C166.49 68.9189 166.613 68.5635 166.63 68.5127C166.799 68.1826 167.065 68.0176 167.429 68.0176C167.514 68.0176 167.59 68.026 167.658 68.043C168.064 68.1191 168.267 68.3604 168.267 68.7666C168.259 69.2744 167.802 69.9896 166.896 70.9121C166.422 71.3861 165.436 72.2493 163.938 73.502L166.807 73.5146V72.0039H166.934C167.07 72.0039 167.184 71.9954 167.277 71.9785C167.522 71.9277 167.692 71.7458 167.785 71.4326L167.95 70.8994H168.229V73.5273H169.346V73.9082H168.229V75.5078H169.042C169.092 75.5078 169.139 75.512 169.181 75.5205C169.291 75.5374 169.346 75.6475 169.346 75.8506Z" fill="white"/>
<path d="M158.167 39.3333V36" stroke="white" stroke-width="2" stroke-linecap="round" stroke-linejoin="round"/>
<path d="M153.167 44.3333H149.833" stroke="white" stroke-width="2" stroke-linecap="round" stroke-linejoin="round"/>
<path d="M161.702 40.7978L164.059 38.4411" stroke="white" stroke-width="2" stroke-linecap="round" stroke-linejoin="round"/>
<path d="M154.631 40.7978L152.274 38.4411" stroke="white" stroke-width="2" stroke-linecap="round" stroke-linejoin="round"/>
<path d="M154 47.0933C153.007 45.5736 152.916 43.6351 153.762 42.029C154.608 40.4228 156.258 39.4013 158.073 39.3602C159.888 39.3191 161.582 40.2649 162.5 41.8311" stroke="white" stroke-width="2" stroke-linecap="round" stroke-linejoin="round"/>
<path d="M161.5 49.3333C161.5 49.6119 161.517 49.8903 161.552 50.1667C161.517 49.8903 161.5 49.6119 161.5 49.3333C161.502 48.9147 161.544 48.4972 161.626 48.0867" stroke="white" stroke-width="2" stroke-linecap="round" stroke-linejoin="round"/>
<path fill-rule="evenodd" clip-rule="evenodd" d="M168.167 56C171.687 56.0042 174.604 53.27 174.828 49.7564C175.051 46.2428 172.504 43.1611 169.011 42.7194C165.518 42.2776 162.284 44.6281 161.626 48.0867C160.082 47.3469 158.244 47.6273 156.991 48.7934C155.739 49.9595 155.328 51.7735 155.956 53.3655C156.584 54.9574 158.122 56.0027 159.833 56H168.167Z" stroke="white" stroke-width="2" stroke-linecap="round" stroke-linejoin="round"/>
<path d="M210.751 18.1826H211.691V24.5557L212.795 24.6699C212.829 24.6699 212.863 24.6742 212.897 24.6826C213.074 24.7165 213.163 24.8223 213.163 25H208.555V24.6699L210.205 24.5557V19.0967L208.326 20.252L208.098 19.8965L210.751 18.1826ZM214.484 23.8574H217.391C217.569 23.8574 217.709 23.849 217.81 23.832C218.039 23.7812 218.208 23.6035 218.318 23.2988L218.534 22.6895H218.813L218.8 25H213.735V24.6699C213.735 24.3314 213.798 24.0225 213.925 23.7432C214.103 23.3538 214.488 22.973 215.081 22.6006C215.699 22.2113 216.058 21.9785 216.16 21.9023C216.828 21.3861 217.163 20.6921 217.163 19.8203C217.163 19.651 217.146 19.486 217.112 19.3252C216.977 18.7074 216.617 18.3984 216.033 18.3984C215.796 18.3984 215.614 18.4577 215.487 18.5762C215.343 18.7031 215.254 18.9909 215.22 19.4395C215.212 19.6426 215.199 19.7907 215.182 19.8838C215.098 20.2731 214.852 20.4678 214.446 20.4678C214.37 20.4678 214.294 20.4551 214.217 20.4297C213.913 20.3281 213.76 20.07 213.76 19.6553C213.76 19.2913 213.892 18.9782 214.154 18.7158C214.594 18.2757 215.254 18.0557 216.134 18.0557C216.566 18.0557 216.964 18.1149 217.328 18.2334C218.225 18.5212 218.673 19.0798 218.673 19.9092C218.673 20.4001 218.462 20.8571 218.039 21.2803C217.7 21.6104 217.061 22.0166 216.122 22.499C215.8 22.6598 215.567 22.7783 215.423 22.8545C214.797 23.21 214.484 23.5443 214.484 23.8574ZM221.606 20.7725C221.606 20.8994 221.577 21.0221 221.518 21.1406C221.365 21.4284 221.124 21.5723 220.794 21.5723C220.675 21.5723 220.557 21.5469 220.438 21.4961C220.142 21.3522 219.994 21.111 219.994 20.7725C219.994 20.6455 220.024 20.5228 220.083 20.4043C220.227 20.1081 220.464 19.96 220.794 19.96C220.921 19.96 221.044 19.9896 221.162 20.0488C221.458 20.2012 221.606 20.4424 221.606 20.7725ZM221.606 23.6924C221.606 23.8193 221.577 23.9421 221.518 24.0605C221.365 24.3483 221.124 24.4922 220.794 24.4922C220.675 24.4922 220.557 24.4668 220.438 24.416C220.142 24.2721 219.994 24.0309 219.994 23.6924C219.994 23.557 220.028 23.4258 220.096 23.2988C220.248 22.9941 220.481 22.8418 220.794 22.8418C220.921 22.8418 221.048 22.8799 221.175 22.9561C221.463 23.1169 221.606 23.3623 221.606 23.6924ZM225.657 18.0557C226.274 18.0557 226.816 18.2038 227.282 18.5C228.179 19.0924 228.627 20.1292 228.627 21.6104C228.627 22.499 228.424 23.2523 228.018 23.8701C227.468 24.708 226.66 25.127 225.593 25.127C224.908 25.127 224.315 24.9408 223.816 24.5684C222.986 23.9336 222.572 22.9307 222.572 21.5596C222.572 20.6709 222.779 19.9176 223.194 19.2998C223.761 18.4704 224.582 18.0557 225.657 18.0557ZM225.631 24.7842C225.868 24.7842 226.076 24.7249 226.253 24.6064C226.77 24.251 227.028 23.2311 227.028 21.5469C227.028 20.7513 226.968 20.1123 226.85 19.6299C226.655 18.8089 226.245 18.3984 225.619 18.3984C225.424 18.3984 225.25 18.4365 225.098 18.5127C224.48 18.8174 224.171 19.8499 224.171 21.6104C224.171 22.4821 224.239 23.1634 224.374 23.6543C224.578 24.4076 224.996 24.7842 225.631 24.7842ZM232.69 18.0557C233.308 18.0557 233.85 18.2038 234.315 18.5C235.212 19.0924 235.661 20.1292 235.661 21.6104C235.661 22.499 235.458 23.2523 235.052 23.8701C234.501 24.708 233.693 25.127 232.627 25.127C231.941 25.127 231.349 24.9408 230.849 24.5684C230.02 23.9336 229.605 22.9307 229.605 21.5596C229.605 20.6709 229.813 19.9176 230.227 19.2998C230.794 18.4704 231.615 18.0557 232.69 18.0557ZM232.665 24.7842C232.902 24.7842 233.109 24.7249 233.287 24.6064C233.803 24.251 234.061 23.2311 234.061 21.5469C234.061 20.7513 234.002 20.1123 233.884 19.6299C233.689 18.8089 233.278 18.3984 232.652 18.3984C232.457 18.3984 232.284 18.4365 232.132 18.5127C231.514 18.8174 231.205 19.8499 231.205 21.6104C231.205 22.4821 231.273 23.1634 231.408 23.6543C231.611 24.4076 232.03 24.7842 232.665 24.7842Z" fill="white"/>
<path d="M217.25 73.8574H220.158C220.335 73.8574 220.475 73.849 220.576 73.832C220.805 73.7812 220.974 73.6035 221.084 73.2988L221.3 72.6895H221.579L221.567 75H216.501V74.6699C216.501 74.3314 216.565 74.0225 216.692 73.7432C216.869 73.3538 217.255 72.973 217.847 72.6006C218.465 72.2113 218.825 71.9785 218.926 71.9023C219.595 71.3861 219.929 70.6921 219.929 69.8203C219.929 69.651 219.912 69.486 219.878 69.3252C219.743 68.7074 219.383 68.3984 218.799 68.3984C218.562 68.3984 218.38 68.4577 218.253 68.5762C218.109 68.7031 218.02 68.9909 217.987 69.4395C217.978 69.6426 217.965 69.7907 217.949 69.8838C217.864 70.2731 217.618 70.4678 217.212 70.4678C217.136 70.4678 217.06 70.4551 216.984 70.4297C216.679 70.3281 216.527 70.07 216.527 69.6553C216.527 69.2913 216.658 68.9782 216.92 68.7158C217.36 68.2757 218.02 68.0557 218.901 68.0557C219.332 68.0557 219.73 68.1149 220.094 68.2334C220.991 68.5212 221.44 69.0798 221.44 69.9092C221.44 70.4001 221.228 70.8571 220.805 71.2803C220.466 71.6104 219.827 72.0166 218.888 72.499C218.566 72.6598 218.334 72.7783 218.19 72.8545C217.563 73.21 217.25 73.5443 217.25 73.8574ZM228.346 75.8506H224.385V75.5078H225.807V73.8955L222.443 73.8828L222.367 73.502C222.621 73.2988 222.862 73.0915 223.091 72.8799C224.115 71.9066 224.838 70.8063 225.261 69.5791C225.49 68.9189 225.613 68.5635 225.63 68.5127C225.799 68.1826 226.065 68.0176 226.429 68.0176C226.514 68.0176 226.59 68.026 226.658 68.043C227.064 68.1191 227.267 68.3604 227.267 68.7666C227.259 69.2744 226.802 69.9896 225.896 70.9121C225.422 71.3861 224.436 72.2493 222.938 73.502L225.807 73.5146V72.0039H225.934C226.07 72.0039 226.184 71.9954 226.277 71.9785C226.522 71.9277 226.692 71.7458 226.785 71.4326L226.95 70.8994H227.229V73.5273H228.346V73.9082H227.229V75.5078H228.042C228.092 75.5078 228.139 75.512 228.181 75.5205C228.291 75.5374 228.346 75.6475 228.346 75.8506Z" fill="white"/>
<circle cx="222" cy="47" r="6.75" stroke="white" stroke-width="2" stroke-linecap="round" stroke-linejoin="round"/>
<path d="M222 37.25V35.75" stroke="white" stroke-width="2" stroke-linecap="round" stroke-linejoin="round"/>
<path d="M228.894 40.106L229.955 39.045" stroke="white" stroke-width="2" stroke-linecap="round" stroke-linejoin="round"/>
<path d="M231.75 47H233.25" stroke="white" stroke-width="2" stroke-linecap="round" stroke-linejoin="round"/>
<path d="M228.894 53.894L229.955 54.955" stroke="white" stroke-width="2" stroke-linecap="round" stroke-linejoin="round"/>
<path d="M222 56.75V58.25" stroke="white" stroke-width="2" stroke-linecap="round" stroke-linejoin="round"/>
<path d="M215.106 53.894L214.045 54.955" stroke="white" stroke-width="2" stroke-linecap="round" stroke-linejoin="round"/>
<path d="M212.25 47H210.75" stroke="white" stroke-width="2" stroke-linecap="round" stroke-linejoin="round"/>
<path d="M215.106 40.106L214.045 39.045" stroke="white" stroke-width="2" stroke-linecap="round" stroke-linejoin="round"/>
<path d="M269.751 18.1826H270.691V24.5557L271.795 24.6699C271.829 24.6699 271.863 24.6742 271.897 24.6826C272.074 24.7165 272.163 24.8223 272.163 25H267.555V24.6699L269.205 24.5557V19.0967L267.326 20.252L267.098 19.8965L269.751 18.1826ZM273.484 23.8574H276.391C276.569 23.8574 276.709 23.849 276.81 23.832C277.039 23.7812 277.208 23.6035 277.318 23.2988L277.534 22.6895H277.813L277.8 25H272.735V24.6699C272.735 24.3314 272.798 24.0225 272.925 23.7432C273.103 23.3538 273.488 22.973 274.081 22.6006C274.699 22.2113 275.058 21.9785 275.16 21.9023C275.828 21.3861 276.163 20.6921 276.163 19.8203C276.163 19.651 276.146 19.486 276.112 19.3252C275.977 18.7074 275.617 18.3984 275.033 18.3984C274.796 18.3984 274.614 18.4577 274.487 18.5762C274.343 18.7031 274.254 18.9909 274.22 19.4395C274.212 19.6426 274.199 19.7907 274.182 19.8838C274.098 20.2731 273.852 20.4678 273.446 20.4678C273.37 20.4678 273.294 20.4551 273.217 20.4297C272.913 20.3281 272.76 20.07 272.76 19.6553C272.76 19.2913 272.892 18.9782 273.154 18.7158C273.594 18.2757 274.254 18.0557 275.134 18.0557C275.566 18.0557 275.964 18.1149 276.328 18.2334C277.225 18.5212 277.673 19.0798 277.673 19.9092C277.673 20.4001 277.462 20.8571 277.039 21.2803C276.7 21.6104 276.061 22.0166 275.122 22.499C274.8 22.6598 274.567 22.7783 274.423 22.8545C273.797 23.21 273.484 23.5443 273.484 23.8574ZM280.606 20.7725C280.606 20.8994 280.577 21.0221 280.518 21.1406C280.365 21.4284 280.124 21.5723 279.794 21.5723C279.675 21.5723 279.557 21.5469 279.438 21.4961C279.142 21.3522 278.994 21.111 278.994 20.7725C278.994 20.6455 279.024 20.5228 279.083 20.4043C279.227 20.1081 279.464 19.96 279.794 19.96C279.921 19.96 280.044 19.9896 280.162 20.0488C280.458 20.2012 280.606 20.4424 280.606 20.7725ZM280.606 23.6924C280.606 23.8193 280.577 23.9421 280.518 24.0605C280.365 24.3483 280.124 24.4922 279.794 24.4922C279.675 24.4922 279.557 24.4668 279.438 24.416C279.142 24.2721 278.994 24.0309 278.994 23.6924C278.994 23.557 279.028 23.4258 279.096 23.2988C279.248 22.9941 279.481 22.8418 279.794 22.8418C279.921 22.8418 280.048 22.8799 280.175 22.9561C280.463 23.1169 280.606 23.3623 280.606 23.6924ZM284.657 18.0557C285.274 18.0557 285.816 18.2038 286.282 18.5C287.179 19.0924 287.627 20.1292 287.627 21.6104C287.627 22.499 287.424 23.2523 287.018 23.8701C286.468 24.708 285.66 25.127 284.593 25.127C283.908 25.127 283.315 24.9408 282.816 24.5684C281.986 23.9336 281.572 22.9307 281.572 21.5596C281.572 20.6709 281.779 19.9176 282.194 19.2998C282.761 18.4704 283.582 18.0557 284.657 18.0557ZM284.631 24.7842C284.868 24.7842 285.076 24.7249 285.253 24.6064C285.77 24.251 286.028 23.2311 286.028 21.5469C286.028 20.7513 285.968 20.1123 285.85 19.6299C285.655 18.8089 285.245 18.3984 284.619 18.3984C284.424 18.3984 284.25 18.4365 284.098 18.5127C283.48 18.8174 283.171 19.8499 283.171 21.6104C283.171 22.4821 283.239 23.1634 283.374 23.6543C283.578 24.4076 283.996 24.7842 284.631 24.7842ZM291.69 18.0557C292.308 18.0557 292.85 18.2038 293.315 18.5C294.212 19.0924 294.661 20.1292 294.661 21.6104C294.661 22.499 294.458 23.2523 294.052 23.8701C293.501 24.708 292.693 25.127 291.627 25.127C290.941 25.127 290.349 24.9408 289.849 24.5684C289.02 23.9336 288.605 22.9307 288.605 21.5596C288.605 20.6709 288.813 19.9176 289.227 19.2998C289.794 18.4704 290.615 18.0557 291.69 18.0557ZM291.665 24.7842C291.902 24.7842 292.109 24.7249 292.287 24.6064C292.803 24.251 293.061 23.2311 293.061 21.5469C293.061 20.7513 293.002 20.1123 292.884 19.6299C292.689 18.8089 292.278 18.3984 291.652 18.3984C291.457 18.3984 291.284 18.4365 291.132 18.5127C290.514 18.8174 290.205 19.8499 290.205 21.6104C290.205 22.4821 290.273 23.1634 290.408 23.6543C290.611 24.4076 291.03 24.7842 291.665 24.7842Z" fill="white"/>
<path d="M276.25 73.8574H279.158C279.335 73.8574 279.475 73.849 279.576 73.832C279.805 73.7812 279.974 73.6035 280.084 73.2988L280.3 72.6895H280.579L280.567 75H275.501V74.6699C275.501 74.3314 275.565 74.0225 275.692 73.7432C275.869 73.3538 276.255 72.973 276.847 72.6006C277.465 72.2113 277.825 71.9785 277.926 71.9023C278.595 71.3861 278.929 70.6921 278.929 69.8203C278.929 69.651 278.912 69.486 278.878 69.3252C278.743 68.7074 278.383 68.3984 277.799 68.3984C277.562 68.3984 277.38 68.4577 277.253 68.5762C277.109 68.7031 277.02 68.9909 276.987 69.4395C276.978 69.6426 276.965 69.7907 276.949 69.8838C276.864 70.2731 276.618 70.4678 276.212 70.4678C276.136 70.4678 276.06 70.4551 275.984 70.4297C275.679 70.3281 275.527 70.07 275.527 69.6553C275.527 69.2913 275.658 68.9782 275.92 68.7158C276.36 68.2757 277.02 68.0557 277.901 68.0557C278.332 68.0557 278.73 68.1149 279.094 68.2334C279.991 68.5212 280.44 69.0798 280.44 69.9092C280.44 70.4001 280.228 70.8571 279.805 71.2803C279.466 71.6104 278.827 72.0166 277.888 72.499C277.566 72.6598 277.334 72.7783 277.19 72.8545C276.563 73.21 276.25 73.5443 276.25 73.8574ZM287.346 75.8506H283.385V75.5078H284.807V73.8955L281.443 73.8828L281.367 73.502C281.621 73.2988 281.862 73.0915 282.091 72.8799C283.115 71.9066 283.838 70.8063 284.261 69.5791C284.49 68.9189 284.613 68.5635 284.63 68.5127C284.799 68.1826 285.065 68.0176 285.429 68.0176C285.514 68.0176 285.59 68.026 285.658 68.043C286.064 68.1191 286.267 68.3604 286.267 68.7666C286.259 69.2744 285.802 69.9896 284.896 70.9121C284.422 71.3861 283.436 72.2493 281.938 73.502L284.807 73.5146V72.0039H284.934C285.07 72.0039 285.184 71.9954 285.277 71.9785C285.522 71.9277 285.692 71.7458 285.785 71.4326L285.95 70.8994H286.229V73.5273H287.346V73.9082H286.229V75.5078H287.042C287.092 75.5078 287.139 75.512 287.181 75.5205C287.291 75.5374 287.346 75.6475 287.346 75.8506Z" fill="white"/>
<path d="M280.276 51.184C280.276 51.4347 280.292 51.6852 280.323 51.934C280.292 51.6852 280.276 51.4347 280.276 51.184C280.278 50.8073 280.316 50.4316 280.389 50.062" stroke="white" stroke-width="2" stroke-linecap="round" stroke-linejoin="round"/>
<path fill-rule="evenodd" clip-rule="evenodd" d="M286.276 57.184C289.445 57.1878 292.07 54.727 292.271 51.5647C292.472 48.4025 290.18 45.629 287.036 45.2314C283.892 44.8339 280.982 46.9493 280.389 50.062C279 49.3962 277.345 49.6486 276.218 50.6981C275.091 51.7476 274.721 53.3802 275.286 54.8129C275.851 56.2457 277.236 57.1864 278.776 57.184H286.276Z" stroke="white" stroke-width="2" stroke-linecap="round" stroke-linejoin="round"/>
<path d="M275.026 43.684C275.026 43.9347 275.042 44.1852 275.073 44.434C275.042 44.1852 275.026 43.9347 275.026 43.684C275.028 43.3073 275.066 42.9316 275.139 42.562" stroke="white" stroke-width="2" stroke-linecap="round" stroke-linejoin="round"/>
<path d="M286.835 42.176C286.128 39.461 283.635 37.5982 280.831 37.6907C278.027 37.7832 275.661 39.8064 275.135 42.562C273.746 41.8962 272.091 42.1486 270.964 43.1981C269.837 44.2476 269.467 45.8802 270.032 47.3129C270.597 48.7457 271.982 49.6864 273.522 49.684" stroke="white" stroke-width="2" stroke-linecap="round" stroke-linejoin="round"/>
<defs>
<linearGradient id="paint0_linear_0_28" x1="14" y1="6" x2="14" y2="86" gradientUnits="userSpaceOnUse">
<stop stop-color="white" stop-opacity="0.01"/>
<stop offset="1" stop-color="white" stop-opacity="0.100169"/>
</linearGradient>
</defs>
</svg>
